REM DIRINDEX 1\2\6,1\2\7,1\2\8,1\3\9,1\3\10,1\3\11,1\4\12,1\4\13,1\4\14,1\5\15,1\5\16,1\5\17,1\5\18
REM DIRNAME folder01,folder02,folder03,folder04,folder05,folder06,folder07,folder08,folder09,folder10,folder11,folder12,folder13,folder14,folder15,folder16,folder17,folder18
TITLE ""
FILE "2Q_k_031-040.mp3" MP3
  TRACK 01 AUDIO
    TITLE "9:cjc019_1700"
    INDEX 01 00:00:00
  TRACK 02 AUDIO
    TITLE "0:"
    INDEX 01 00:01:50
  TRACK 03 AUDIO
    TITLE "10:cjc019_1701"
    INDEX 01 00:02:30
  TRACK 04 AUDIO
    TITLE "0:"
    INDEX 01 00:05:12
  TRACK 05 AUDIO
    TITLE "11:cjc019_1702"
    INDEX 01 00:05:61
  TRACK 06 AUDIO
    TITLE "11:cjc019_1703"
    INDEX 01 00:08:50
  TRACK 07 AUDIO
    TITLE "0:"
    INDEX 01 00:12:36
  TRACK 08 AUDIO
    TITLE "9:cjc019_1704"
    INDEX 01 00:13:16
  TRACK 09 AUDIO
    TITLE "0:"
    INDEX 01 00:14:74
  TRACK 10 AUDIO
    TITLE "10:cjc019_1705"
    INDEX 01 00:15:52
  TRACK 11 AUDIO
    TITLE "0:"
    INDEX 01 00:17:65
  TRACK 12 AUDIO
    TITLE "11:cjc019_1706"
    INDEX 01 00:18:46
  TRACK 13 AUDIO
    TITLE "11:cjc019_1707"
    INDEX 01 00:20:49
  TRACK 14 AUDIO
    TITLE "0:"
    INDEX 01 00:24:02
  TRACK 15 AUDIO
    TITLE "9:cjc019_1708"
    INDEX 01 00:24:55
  TRACK 16 AUDIO
    TITLE "0:"
    INDEX 01 00:26:11
  TRACK 17 AUDIO
    TITLE "10:cjc019_1709"
    INDEX 01 00:26:60
  TRACK 18 AUDIO
    TITLE "0:"
    INDEX 01 00:30:01
  TRACK 19 AUDIO
    TITLE "11:cjc019_1710"
    INDEX 01 00:30:55
  TRACK 20 AUDIO
    TITLE "11:cjc019_1711"
    INDEX 01 00:33:26
  TRACK 21 AUDIO
    TITLE "0:"
    INDEX 01 00:37:65
  TRACK 22 AUDIO
    TITLE "9:cjc019_1712"
    INDEX 01 00:38:43
  TRACK 23 AUDIO
    TITLE "0:"
    INDEX 01 00:40:60
  TRACK 24 AUDIO
    TITLE "10:cjc019_1713"
    INDEX 01 00:41:40
  TRACK 25 AUDIO
    TITLE "0:"
    INDEX 01 00:42:61
  TRACK 26 AUDIO
    TITLE "11:cjc019_1714"
    INDEX 01 00:43:40
  TRACK 27 AUDIO
    TITLE "11:cjc019_1715"
    INDEX 01 00:45:59
  TRACK 28 AUDIO
    TITLE "0:"
    INDEX 01 00:47:62
  TRACK 29 AUDIO
    TITLE "9:cjc019_1716"
    INDEX 01 00:48:34
  TRACK 30 AUDIO
    TITLE "0:"
    INDEX 01 00:51:01
  TRACK 31 AUDIO
    TITLE "10:cjc019_1717"
    INDEX 01 00:51:52
  TRACK 32 AUDIO
    TITLE "0:"
    INDEX 01 00:53:33
  TRACK 33 AUDIO
    TITLE "11:cjc019_1718"
    INDEX 01 00:54:09
  TRACK 34 AUDIO
    TITLE "11:cjc019_1719"
    INDEX 01 00:57:31
  TRACK 35 AUDIO
    TITLE "0:"
    INDEX 01 01:02:73
  TRACK 36 AUDIO
    TITLE "9:cjc019_1720"
    INDEX 01 01:03:51
  TRACK 37 AUDIO
    TITLE "0:"
    INDEX 01 01:06:24
  TRACK 38 AUDIO
    TITLE "10:cjc019_1721"
    INDEX 01 01:07:00
  TRACK 39 AUDIO
    TITLE "0:"
    INDEX 01 01:09:46
  TRACK 40 AUDIO
    TITLE "11:cjc019_1722"
    INDEX 01 01:10:24
  TRACK 41 AUDIO
    TITLE "11:cjc019_1723"
    INDEX 01 01:12:26
  TRACK 42 AUDIO
    TITLE "0:"
    INDEX 01 01:16:36
  TRACK 43 AUDIO
    TITLE "9:cjc019_1724"
    INDEX 01 01:17:16
  TRACK 44 AUDIO
    TITLE "0:"
    INDEX 01 01:18:64
  TRACK 45 AUDIO
    TITLE "10:cjc019_1725"
    INDEX 01 01:19:50
  TRACK 46 AUDIO
    TITLE "0:"
    INDEX 01 01:22:03
  TRACK 47 AUDIO
    TITLE "11:cjc019_1726"
    INDEX 01 01:22:52
  TRACK 48 AUDIO
    TITLE "11:cjc019_1727"
    INDEX 01 01:26:32
  TRACK 49 AUDIO
    TITLE "0:"
    INDEX 01 01:29:35
  TRACK 50 AUDIO
    TITLE "9:cjc019_1728"
    INDEX 01 01:30:07
  TRACK 51 AUDIO
    TITLE "0:"
    INDEX 01 01:31:73
  TRACK 52 AUDIO
    TITLE "10:cjc019_1729"
    INDEX 01 01:32:53
  TRACK 53 AUDIO
    TITLE "0:"
    INDEX 01 01:36:27
  TRACK 54 AUDIO
    TITLE "11:cjc019_1730"
    INDEX 01 01:37:05
  TRACK 55 AUDIO
    TITLE "11:cjc019_1731"
    INDEX 01 01:39:39
  TRACK 56 AUDIO
    TITLE "0:"
    INDEX 01 01:45:47
  TRACK 57 AUDIO
    TITLE "9:cjc019_1732"
    INDEX 01 01:46:23
  TRACK 58 AUDIO
    TITLE "0:"
    INDEX 01 01:48:52
  TRACK 59 AUDIO
    TITLE "10:cjc019_1733"
    INDEX 01 01:49:33
  TRACK 60 AUDIO
    TITLE "0:"
    INDEX 01 01:52:18
  TRACK 61 AUDIO
    TITLE "11:cjc019_1734"
    INDEX 01 01:52:71
  TRACK 62 AUDIO
    TITLE "11:cjc019_1735"
    INDEX 01 01:56:30
  TRACK 63 AUDIO
    TITLE "0:"
    INDEX 01 02:00:65
  TRACK 64 AUDIO
    TITLE "9:cjc019_1736"
    INDEX 01 02:01:48
  TRACK 65 AUDIO
    TITLE "0:"
    INDEX 01 02:04:57
  TRACK 66 AUDIO
    TITLE "10:cjc019_1737"
    INDEX 01 02:05:34
  TRACK 67 AUDIO
    TITLE "0:"
    INDEX 01 02:07:49
  TRACK 68 AUDIO
    TITLE "11:cjc019_1738"
    INDEX 01 02:08:33
  TRACK 69 AUDIO
    TITLE "11:cjc019_1739"
    INDEX 01 02:12:11
  TRACK 70 AUDIO
    TITLE "0:"
    INDEX 01 02:15:09
